# Blender 3.5.1
# www.blender.org
mtllib objeto.mtl
o Drops
v -0.280900 -0.619800 -0.280900
v -0.162200 -0.666200 -0.324400
v 0.000000 -0.687000 -0.344100
v 0.162200 -0.666200 -0.324400
v 0.280900 -0.619800 -0.280900
v -0.324400 -0.490900 -0.324400
v -0.198700 -0.530800 -0.397300
v 0.000000 -0.551400 -0.435200
v 0.198700 -0.530800 -0.397300
v 0.324400 -0.490900 -0.324400
v -0.344100 -0.311200 -0.344100
v -0.217600 -0.311200 -0.435200
v 0.000000 -0.311200 -0.486600
v 0.217600 -0.311200 -0.435200
v 0.344100 -0.311200 -0.344100
v -0.324400 -0.130500 -0.324400
v -0.198700 -0.090200 -0.397300
v 0.000000 -0.069300 -0.435200
v 0.198700 -0.090200 -0.397300
v 0.324400 -0.130500 -0.324400
v -0.280900 0.013800 -0.280900
v -0.162200 0.073600 -0.324400
v 0.000000 0.093200 -0.344100
v 0.162200 0.073600 -0.324400
v 0.280900 0.013800 -0.280900
v -0.280900 -0.619800 0.280900
v -0.162200 -0.666200 0.324400
v 0.000000 -0.687000 0.344100
v 0.162200 -0.666200 0.324400
v 0.280900 -0.619800 0.280900
v -0.324400 -0.490900 0.324400
v -0.198700 -0.530800 0.397300
v 0.000000 -0.551400 0.435200
v 0.198700 -0.530800 0.397300
v 0.324400 -0.490900 0.324400
v -0.344100 -0.311200 0.344100
v -0.217600 -0.311200 0.435200
v 0.000000 -0.311200 0.486600
v 0.217600 -0.311200 0.435200
v 0.344100 -0.311200 0.344100
v -0.324400 -0.130500 0.324400
v -0.198700 -0.090200 0.397300
v 0.000000 -0.069300 0.435200
v 0.198700 -0.090200 0.397300
v 0.324400 -0.130500 0.324400
v -0.280900 0.013800 0.280900
v -0.162200 0.073600 0.324400
v 0.000000 0.093200 0.344100
v 0.162200 0.073600 0.324400
v 0.280900 0.013800 0.280900
v -0.324400 -0.666200 -0.162200
v -0.198700 -0.742600 -0.198700
v 0.000000 -0.781600 -0.217600
v 0.198700 -0.742600 -0.198700
v 0.324400 -0.666200 -0.162200
v -0.344100 -0.687000 0.000000
v -0.217600 -0.781600 0.000000
v 0.000000 -0.833500 0.000000
v 0.217600 -0.781600 0.000000
v 0.344100 -0.687000 0.000000
v -0.324400 -0.666200 0.162200
v -0.198700 -0.742600 0.198700
v 0.000000 -0.781600 0.217600
v 0.198700 -0.742600 0.198700
v 0.324400 -0.666200 0.162200
v 0.397300 -0.530800 -0.198700
v 0.435200 -0.311200 -0.217600
v 0.397300 -0.090200 -0.198700
v 0.324400 0.073600 -0.162200
v 0.435200 -0.551400 0.000000
v 0.486600 -0.311200 0.000000
v 0.435200 -0.069300 0.000000
v 0.344100 0.093200 -0.000000
v 0.397300 -0.530800 0.198700
v 0.435200 -0.311200 0.217600
v 0.397300 -0.090200 0.198700
v 0.324400 0.073600 0.162200
v 0.155900 0.287400 -0.155900
v 0.000000 0.318000 -0.200300
v -0.155900 0.287400 -0.155900
v -0.324400 0.073600 -0.162200
v 0.003900 0.824300 -0.003900
v 0.000000 0.826800 -0.004400
v -0.003900 0.824300 -0.003900
v 0.200300 0.318000 -0.000000
v 0.004400 0.826800 -0.000000
v 0.000000 0.833500 -0.000000
v -0.004400 0.826800 -0.000000
v -0.200300 0.318000 -0.000000
v -0.344100 0.093200 -0.000000
v 0.155900 0.287400 0.155900
v 0.003900 0.824300 0.003900
v 0.000000 0.826800 0.004400
v -0.003900 0.824300 0.003900
v -0.155900 0.287400 0.155900
v -0.324400 0.073600 0.162200
v 0.000000 0.318000 0.200300
v -0.397300 -0.090200 -0.198700
v -0.435200 -0.311200 -0.217600
v -0.397300 -0.530800 -0.198700
v -0.435200 -0.069300 0.000000
v -0.486600 -0.311200 0.000000
v -0.435200 -0.551400 0.000000
v -0.397300 -0.090200 0.198700
v -0.435200 -0.311200 0.217600
v -0.397300 -0.530800 0.198700
v 0.067000 0.542000 -0.067000
v 0.000000 0.544000 -0.093300
v -0.067000 0.542000 -0.067000
v -0.093300 0.544000 -0.000000
v -0.067000 0.542000 0.067000
v 0.000000 0.544000 0.093300
v 0.067000 0.542000 0.067000
v 0.093300 0.544000 -0.000000
v 0.024700 0.703200 -0.024700
v 0.000000 0.703900 -0.034400
v -0.024700 0.703200 -0.024700
v -0.034400 0.703900 -0.000000
v -0.024700 0.703200 0.024700
v 0.000000 0.703900 0.034400
v 0.024700 0.703200 0.024700
v 0.034400 0.703900 -0.000000
vn -0.0000 -1.0000 -0.0000
vn -0.4128 -0.9108 -0.0033
vn -0.3859 -0.8379 -0.3859
vn -0.0032 -0.9108 -0.4129
vn -0.9176 -0.0040 -0.3976
vn -0.7071 -0.0005 -0.7071
vn -0.6656 -0.2966 -0.6848
vn -0.8537 -0.3543 -0.3816
vn 0.7071 -0.0005 -0.7071
vn 0.6806 -0.2848 -0.6750
vn 0.3769 -0.3501 -0.8575
vn 0.4024 0.0028 -0.9155
vn -0.0000 -0.0006 -1.0000
vn -0.0029 -0.3742 -0.9273
vn -0.0002 0.5226 -0.8526
vn 0.3833 0.5151 -0.7666
vn 0.3805 0.3194 -0.8679
vn 0.0037 0.3352 -0.9421
vn 0.8557 -0.3528 -0.3785
vn 0.9151 0.0022 -0.4031
vn 0.6956 -0.6429 0.3208
vn 0.3861 -0.8383 0.3850
vn 0.4076 -0.9132 0.0026
vn 0.7247 -0.6891 -0.0000
vn -0.6749 -0.6553 -0.3393
vn -0.7249 -0.6889 -0.0005
vn -0.9251 -0.3798 0.0030
vn -0.6798 -0.6591 0.3215
vn -0.3876 -0.8364 0.3876
vn -0.0026 -0.9105 0.4135
vn -0.6881 0.2669 -0.6748
vn -0.8679 0.3195 -0.3805
vn -0.3873 0.5246 -0.7582
vn -0.3809 0.3191 -0.8678
vn -0.6152 0.4724 -0.6312
vn 0.8501 0.5267 0.0013
vn 0.9396 0.3422 0.0035
vn 0.8679 0.3190 -0.3809
vn 0.7639 0.5210 -0.3808
vn -0.8624 0.5062 -0.0039
vn -0.5994 0.5531 -0.5786
vn -0.7758 0.5045 -0.3788
vn -0.8501 0.5267 -0.0013
vn -0.0030 0.5130 -0.8584
vn 0.9273 -0.3743 -0.0028
vn 1.0000 -0.0006 -0.0000
vn 0.9152 -0.0032 0.4031
vn 0.8552 -0.3553 0.3773
vn 0.5980 0.5428 -0.5897
vn -0.3802 -0.3520 0.8553
vn -0.3428 -0.6496 0.6786
vn 0.0002 -0.6893 0.7245
vn 0.0028 -0.3799 0.9250
vn 0.6476 0.4003 -0.6483
vn 0.9197 0.3927 -0.0000
vn 0.8630 0.5053 -0.0028
vn 0.6721 0.2797 -0.6856
vn 0.6222 0.4708 -0.6254
vn -0.6806 -0.2949 0.6707
vn -0.4031 0.0022 0.9152
vn -0.7071 0.0029 0.7071
vn 0.3208 -0.6429 0.6955
vn 0.3816 -0.3543 0.8537
vn -0.8552 -0.3531 0.3795
vn -0.5821 -0.5423 0.6059
vn 0.5739 -0.5592 0.5983
vn 0.7071 -0.0038 0.7071
vn 0.4025 0.0028 0.9154
vn 0.6804 -0.3000 0.6687
vn -0.6818 0.2649 0.6818
vn -0.3820 0.3194 0.8672
vn 0.0037 0.3420 0.9397
vn 0.0013 0.5267 0.8500
vn -0.3767 0.5170 0.7687
vn -0.9179 -0.0033 0.3969
vn -0.0000 -0.0006 1.0000
vn 0.3815 0.3183 0.8678
vn -0.8678 0.3191 0.3809
vn 0.3757 0.5207 0.7666
vn -0.6312 0.4508 0.6312
vn -0.6748 0.2996 -0.6744
vn -0.6492 0.3994 -0.6474
vn -0.9197 0.3927 -0.0000
vn -0.9560 0.2933 -0.0003
vn 0.6207 0.4782 0.6214
vn 0.6777 0.2722 0.6831
vn -0.0000 0.2932 0.9561
vn -0.0000 0.3927 0.9197
vn 0.6480 0.4004 0.6479
vn 0.6751 0.2988 0.6745
vn 0.7699 0.5014 0.3948
vn 0.5879 0.5286 0.6123
vn -1.0000 -0.0006 -0.0000
vn -0.9397 0.3419 -0.0037
vn 0.0050 0.5062 0.8624
vn 0.6752 -0.6558 -0.3378
vn 0.5990 -0.5337 -0.5969
vn 0.3883 -0.8380 -0.3834
vn 0.3396 -0.6471 -0.6826
vn -0.3969 -0.0034 -0.9178
vn -0.6000 0.5349 0.5949
vn -0.6493 0.3266 -0.6868
vn 0.0075 0.5008 -0.8655
vn -0.0000 0.2932 -0.9561
vn 0.9561 0.2931 -0.0004
vn 0.6749 0.2995 -0.6744
vn 0.6721 0.3231 -0.6663
vn 0.8619 0.5071 0.0028
vn 0.8679 0.3194 0.3805
vn -0.0000 0.3927 -0.9197
vn -0.0000 1.0000 -0.0000
vn 0.0072 0.4984 0.8669
vn 0.6753 0.3383 0.6553
vn -0.6769 0.3035 0.6706
vn -0.6750 0.2994 0.6743
vn -0.8662 0.4997 -0.0083
vn -0.7645 0.5207 0.3800
vn -0.6490 0.3996 0.6474
vn -0.3789 -0.3513 -0.8561
vn -0.3218 -0.6514 -0.6871
vn -0.6066 -0.5427 -0.5810
vn -0.0035 -0.6888 -0.7249
vt 0.166400 0.165300
vt 0.131500 0.128500
vt 0.087200 0.083100
vt 0.512000 0.913000
vt 0.556900 0.868100
vt 0.592300 0.831600
vt 0.153600 0.219400
vt 0.106200 0.193200
vt 0.460700 0.835600
vt 0.035000 0.159800
vt 0.532400 0.803000
vt 0.580100 0.777300
vt 0.147000 0.289900
vt 0.092600 0.287300
vt 0.006400 0.283700
vt 0.433500 0.711300
vt 0.519800 0.708700
vt 0.574300 0.706800
vt 0.151100 0.360900
vt 0.100600 0.382300
vt 0.025800 0.408500
vt 0.454400 0.586700
vt 0.529000 0.613800
vt 0.579400 0.635800
vt 0.162300 0.421200
vt 0.123600 0.457600
vt 0.500200 0.501200
vt 0.070600 0.494500
vt 0.552800 0.538700
vt 0.591100 0.575600
vt 0.393200 0.165500
vt 0.428100 0.128700
vt 0.897600 0.917100
vt 0.472500 0.083400
vt 0.853700 0.871300
vt 0.819100 0.834100
vt 0.405800 0.219600
vt 0.453400 0.193500
vt 0.524600 0.160200
vt 0.950600 0.840800
vt 0.879600 0.806800
vt 0.832500 0.780100
vt 0.412600 0.290000
vt 0.467000 0.287500
vt 0.980400 0.717200
vt 0.553100 0.284100
vt 0.894100 0.712700
vt 0.839700 0.709600
vt 0.408200 0.361100
vt 0.458800 0.382600
vt 0.962200 0.592100
vt 0.533500 0.408900
vt 0.887000 0.617600
vt 0.836200 0.638600
vt 0.397000 0.421400
vt 0.435600 0.457900
vt 0.488500 0.494900
vt 0.918200 0.505600
vt 0.864800 0.542000
vt 0.825700 0.578100
vt 0.217000 0.153400
vt 0.193800 0.104200
vt 0.587000 0.964800
vt 0.162700 0.032200
vt 0.618900 0.893100
vt 0.642800 0.844100
vt 0.279800 0.148200
vt 0.279900 0.093300
vt 0.704000 0.990800
vt 0.279900 0.007600
vt 0.704900 0.905000
vt 0.705500 0.850000
vt 0.342600 0.153600
vt 0.365900 0.104400
vt 0.397100 0.032400
vt 0.821500 0.967400
vt 0.791200 0.894900
vt 0.768400 0.845500
vt 0.632700 0.788000
vt 0.627500 0.705500
vt 0.633100 0.621900
vt 0.643300 0.555100
vt 0.706200 0.793900
vt 0.707000 0.705400
vt 0.708100 0.615500
vt 0.708800 0.548300
vt 0.779800 0.789600
vt 0.786600 0.707200
vt 0.782900 0.623600
vt 0.774000 0.556400
vt 0.631600 0.451700
vt 0.580000 0.408500
vt 0.149300 0.587900
vt 0.201500 0.545400
vt 0.214300 0.442400
vt 0.712000 0.230100
vt 0.279900 0.768400
vt 0.712500 0.229400
vt 0.279300 0.767700
vt 0.709700 0.446700
vt 0.712500 0.229800
vt 0.712600 0.233000
vt 0.279800 0.764800
vt 0.279900 0.767900
vt 0.279800 0.551300
vt 0.279600 0.449700
vt 0.787800 0.453300
vt 0.712900 0.230000
vt 0.712400 0.229300
vt 0.279700 0.768500
vt 0.280200 0.767800
vt 0.357600 0.545600
vt 0.345000 0.442400
vt 0.409500 0.588300
vt 0.840400 0.411200
vt 0.204700 0.375300
vt 0.200200 0.291800
vt 0.206300 0.209400
vt 0.279700 0.382600
vt 0.279700 0.292900
vt 0.279700 0.204400
vt 0.354700 0.375400
vt 0.359500 0.292000
vt 0.353100 0.209600
vt 0.677900 0.345400
vt 0.651400 0.330900
vt 0.219600 0.666300
vt 0.246200 0.652100
vt 0.279200 0.649000
vt 0.312200 0.652100
vt 0.338800 0.666400
vt 0.770600 0.332200
vt 0.743900 0.346100
vt 0.710900 0.348900
vt 0.700600 0.279500
vt 0.258100 0.722700
vt 0.690600 0.275000
vt 0.268000 0.718300
vt 0.279100 0.717200
vt 0.290100 0.718200
vt 0.732700 0.275500
vt 0.300100 0.722500
vt 0.722700 0.279700
vt 0.711600 0.280600
s 1
usemtl Drops
f 58/70/1 57/68/2 52/62/3 53/63/4
f 99/117/5 11/13/6 6/7/7 100/118/8
f 15/18/9 10/12/10 9/11/11 14/17/12
f 13/16/13 14/17/12 9/11/11 8/10/14
f 23/27/15 24/29/16 19/23/17 18/21/18
f 66/79/19 10/12/10 15/18/9 67/80/20
f 65/78/21 64/77/22 59/71/23 60/72/24
f 51/61/25 56/67/26 103/121/27 100/118/8
f 61/73/28 56/67/26 57/68/2 62/74/29
f 57/68/2 58/69/1 63/75/30 62/74/29
f 16/19/31 11/13/6 99/117/5 98/116/32
f 22/26/33 23/27/15 18/21/18 17/20/34
f 19/23/17 14/17/12 13/15/13 18/22/18
f 21/25/35 22/26/33 17/20/34 16/19/31
f 73/86/36 72/85/37 68/81/38 69/82/39
f 89/105/40 80/94/41 81/95/42 90/106/43
f 79/92/44 23/28/15 22/26/33 80/94/41
f 21/25/35 16/19/31 98/116/32 81/95/42
f 70/83/45 71/84/46 75/88/47 74/87/48
f 24/29/16 23/28/15 79/92/44 78/91/49
f 32/38/50 27/32/51 28/33/52 33/39/53
f 107/125/54 114/134/55 85/100/56 78/91/49
f 80/94/41 22/26/33 21/25/35 81/95/42
f 69/82/39 68/81/38 20/24/57 25/30/58
f 31/37/59 32/38/50 37/44/60 36/43/61
f 33/39/53 28/33/52 29/35/62 34/41/63
f 106/124/64 61/73/28 26/31/65 31/37/59
f 69/82/39 25/30/58 24/29/16 78/91/49
f 32/38/50 31/37/59 26/31/65 27/32/51
f 29/35/62 28/34/52 63/76/30 64/77/22
f 30/36/66 29/35/62 64/77/22 65/78/21
f 40/48/67 39/47/68 34/41/63 35/42/69
f 41/49/70 36/43/61 37/44/60 42/50/71
f 42/50/71 43/51/72 48/57/73 47/56/74
f 105/123/75 106/124/64 31/37/59 36/43/61
f 43/52/72 38/45/76 39/47/68 44/53/77
f 40/48/67 35/42/69 74/87/48 75/88/47
f 104/122/78 105/123/75 36/43/61 41/49/70
f 48/57/73 43/51/72 44/53/77 49/59/79
f 47/56/74 46/55/80 41/49/70 42/50/71
f 117/138/81 109/128/82 110/129/83 118/139/84
f 50/60/85 49/59/79 44/53/77 45/54/86
f 120/142/87 112/132/88 113/133/89 121/143/90
f 49/59/79 50/60/85 77/90/91 91/107/92
f 98/116/32 99/117/5 102/120/93 101/119/94
f 91/107/92 97/114/95 48/58/73 49/59/79
f 113/133/89 112/131/88 97/115/95 91/107/92
f 66/79/19 55/66/96 5/6/97 10/12/10
f 55/66/96 54/65/98 4/5/99 5/6/97
f 19/23/17 20/24/57 15/18/9 14/17/12
f 25/30/58 20/24/57 19/23/17 24/29/16
f 17/20/34 18/22/18 13/15/13 12/14/100
f 72/85/37 71/84/46 67/80/20 68/81/38
f 106/124/64 103/121/27 56/67/26 61/73/28
f 71/84/46 70/83/45 66/79/19 67/80/20
f 64/77/22 63/75/30 58/69/1 59/71/23
f 70/83/45 74/87/48 65/78/21 60/72/24
f 44/53/77 39/47/68 40/48/67 45/54/86
f 42/50/71 37/44/60 38/45/76 43/52/72
f 95/112/101 47/56/74 48/58/73 97/114/95
f 16/19/31 17/20/34 12/14/100 11/13/6
f 67/80/20 15/18/9 20/24/57 68/81/38
f 84/99/102 83/98/103 116/136/104 117/138/81
f 27/32/51 26/31/65 61/73/28 62/74/29
f 122/144/105 115/135/106 82/96/107 86/101/108
f 72/85/37 73/86/36 77/90/91 76/89/109
f 73/86/36 69/82/39 78/91/49 85/100/56
f 91/107/92 77/90/91 73/86/36 85/100/56
f 78/91/49 79/93/44 108/126/110 107/125/54
f 79/93/44 80/94/41 109/128/82 108/126/110
f 86/101/108 87/103/111 93/109/112 92/108/113
f 93/110/112 94/111/114 119/140/115 120/141/87
f 84/99/102 88/104/116 87/102/111 83/97/103
f 71/84/46 72/85/37 76/89/109 75/88/47
f 96/113/117 46/55/80 47/56/74 95/112/101
f 96/113/117 104/122/78 41/49/70 46/55/80
f 60/72/24 59/71/23 54/65/98 55/66/96
f 34/41/63 29/35/62 30/36/66 35/42/69
f 28/34/52 27/32/51 62/74/29 63/76/30
f 37/44/60 32/38/50 33/40/53 38/46/76
f 118/139/84 119/140/115 94/111/114 88/104/116
f 103/121/27 102/120/93 99/117/5 100/118/8
f 86/101/108 82/96/107 83/97/103 87/102/111
f 83/98/103 82/96/107 115/135/106 116/136/104
f 93/109/112 87/103/111 88/104/116 94/111/114
f 90/106/43 81/95/42 98/116/32 101/119/94
f 88/104/116 84/99/102 117/138/81 118/139/84
f 121/143/90 122/144/105 86/101/108 92/108/113
f 89/105/40 95/112/101 111/130/118 110/129/83
f 121/143/90 113/133/89 114/134/55 122/144/105
f 118/139/84 110/129/83 111/130/118 119/140/115
f 95/112/101 97/115/95 112/131/88 111/130/118
f 53/63/4 54/65/98 59/71/23 58/70/1
f 51/61/25 52/62/3 57/68/2 56/67/26
f 7/8/119 2/2/120 1/1/121 6/7/7
f 54/65/98 53/64/4 3/4/122 4/5/99
f 105/123/75 104/122/78 101/119/94 102/120/93
f 91/107/92 85/100/56 114/134/55 113/133/89
f 116/137/104 115/135/106 107/125/54 108/127/110
f 66/79/19 70/83/45 60/72/24 55/66/96
f 76/89/109 77/90/91 50/60/85 45/54/86
f 45/54/86 40/48/67 75/88/47 76/89/109
f 65/78/21 74/87/48 35/42/69 30/36/66
f 38/46/76 33/40/53 34/41/63 39/47/68
f 92/108/113 93/110/112 120/141/87 121/143/90
f 106/124/64 105/123/75 102/120/93 103/121/27
f 100/118/8 6/7/7 1/1/121 51/61/25
f 80/94/41 89/105/40 110/129/83 109/128/82
f 119/140/115 111/130/118 112/132/88 120/142/87
f 115/135/106 122/144/105 114/134/55 107/125/54
f 9/11/11 4/5/99 3/3/122 8/9/14
f 52/62/3 51/61/25 1/1/121 2/2/120
f 8/9/14 3/3/122 2/2/120 7/8/119
f 11/13/6 12/14/100 7/8/119 6/7/7
f 96/113/117 90/106/43 101/119/94 104/122/78
f 116/137/104 108/127/110 109/128/82 117/138/81
f 89/105/40 90/106/43 96/113/117 95/112/101
f 53/64/4 52/62/3 2/2/120 3/4/122
f 10/12/10 5/6/97 4/5/99 9/11/11
f 12/14/100 13/16/13 8/10/14 7/8/119
